<svg width="614" height="490" viewBox="0 0 614 490" fill="none" xmlns="http://www.w3.org/2000/svg">
<g filter="url(#filter0_d_0_539)">
<path d="M587.079 92.2136C566.107 69.8294 549.872 43.1067 524.805 24.8392C485.431 -3.91515 428.764 -6.71872 382.724 11.3448C336.685 29.4083 300.82 65.8192 277.181 107.048C264.746 128.74 254.979 152.402 236.758 170.128C221.355 185.104 201.11 194.659 181.915 205.066C150.967 221.799 121.163 242.018 101.136 269.761C81.1086 297.504 72.1542 333.942 84.9571 365.207C93.5901 386.304 110.979 403.09 128.793 418.288C149.757 436.157 172.289 452.889 198.292 463.536C230.848 476.782 266.987 479.63 302.427 480.978C365.255 483.358 428.184 481.579 490.746 475.655C541.976 470.811 594.757 462.542 637.62 435.775C697.663 398.291 728.621 329.612 735.59 262.264C738.426 235.329 737.708 207.337 726.626 182.345C700.122 122.565 628.609 136.547 587.079 92.2136Z" fill="#EFF1F7"/>
<path d="M182.317 202.334C182.317 202.334 165.717 199.387 161.067 211.003C156.417 222.619 161.067 262.736 161.067 262.736L223 307L182.317 202.334Z" fill="#3F3D56"/>
<path d="M260.202 379.727L235.647 386.735C232.079 387.744 228.337 385.783 227.275 382.349C226.228 378.911 228.262 375.303 231.825 374.28L256.347 367.266C259.912 366.256 263.654 368.213 264.719 371.645C265.777 375.078 263.758 378.69 260.202 379.727Z" fill="#2BD0D0"/>
<circle cx="259" cy="395" r="11" fill="#25233A"/>
<circle cx="257.5" cy="397.5" r="5.5" fill="#3F3D56"/>
<circle cx="214" cy="384" r="11" fill="#25233A"/>
<path d="M218 384.5C218 387.538 215.538 390 212.5 390C209.462 390 207 387.538 207 384.5C207 381.462 209.462 379 212.5 379C215.538 379 218 381.462 218 384.5Z" fill="url(#paint0_linear_0_539)"/>
<circle cx="211" cy="399" r="11" fill="#25233A"/>
<path d="M220 399.5C220 402.538 217.538 405 214.5 405C211.462 405 209 402.538 209 399.5C209 396.462 211.462 394 214.5 394C217.538 394 220 396.462 220 399.5Z" fill="#3F3D56"/>
<path d="M261.085 390.874L210.298 380.828C206.724 380.111 204.414 376.698 205.13 373.192C205.862 369.692 209.341 367.428 212.915 368.126L263.702 378.153C267.276 378.87 269.586 382.284 268.87 385.79C268.147 389.297 264.666 391.571 261.085 390.874Z" fill="#2BD0D0"/>
<path d="M230 310H244V368.999C244 372.866 240.867 376 237.003 376C233.139 376 230.007 372.866 230.007 368.999V310H230Z" fill="#2BD0D0"/>
<path d="M235.187 386.708L210.65 393.733C207.082 394.747 203.336 392.784 202.275 389.345C201.228 385.904 203.262 382.295 206.823 381.271L231.36 374.266C234.924 373.255 238.664 375.214 239.728 378.647C240.767 382.082 238.739 385.681 235.187 386.708Z" fill="#2BD0D0"/>
<path d="M240 386.26L236.875 386.811C235.943 386.974 234.968 387.033 234 386.983L235.305 386.755C236.212 386.598 237.063 386.342 237.812 386L240 386.26Z" fill="url(#paint1_linear_0_539)"/>
<path d="M265 372.738C264.999 374.293 264.483 375.799 263.54 377L243 372.65C243.517 371.913 243.89 371.077 244.098 370.188L256.752 366.265C258.398 365.768 260.165 365.976 261.665 366.844C263.165 367.711 264.274 369.168 264.748 370.892C264.912 371.492 264.997 372.114 265 372.738Z" fill="url(#paint2_linear_0_539)"/>
<path opacity="0.31" d="M229.221 371.103C229.074 370.585 229 370.055 229 369.523V311H234.943V374.071C234.884 374.38 234.904 374.697 235 375C234.1 374.685 233.135 374.511 232.155 374.489C231.464 374.449 230.77 374.449 230.079 374.489L230.504 374.389C230.766 374.349 229.564 372.298 229.221 371.103Z" fill="url(#paint3_linear_0_539)"/>
<path opacity="0.31" d="M266.289 389.8C265.319 390.323 264.228 390.597 263.119 390.596C262.673 390.595 262.228 390.552 261.79 390.467L239.382 386.06L237.515 385.697C236.878 386.175 236.154 386.533 235.382 386.752L234.272 387.069L211.247 393.735C207.733 394.742 204.045 392.792 203 389.373C204.997 391.178 208.029 391.346 210.223 389.774C213.034 387.878 224.225 385.031 230.564 383.517C233.56 382.819 235.852 380.468 236.412 377.518C236.428 377.344 236.454 377.171 236.492 377C237.548 378.113 239.489 379.362 242.997 380.423C251.636 383.012 265.664 384.727 265.664 384.727C265.664 384.727 268.196 387.147 266.289 389.8Z" fill="url(#paint4_linear_0_539)"/>
<path d="M268 388C267.472 388.778 266.793 389.456 266 390C266.538 389.479 267.229 388.785 268 388Z" fill="url(#paint5_linear_0_539)"/>
<path d="M230.299 370.559C230.577 371.729 231.163 372.809 232 373.688C231.791 373.728 231.575 373.781 231.359 373.84L210.088 380C206.817 379.187 204.662 376.135 205.044 372.854C205.425 369.574 208.225 367.073 211.6 367C212.053 367.001 212.505 367.045 212.949 367.132L230.299 370.559Z" fill="url(#paint6_linear_0_539)"/>
<path d="M263 89.4074C263 89.4074 262.724 68.6021 245.925 70.3961C229.126 72.1901 230.414 65.3019 223.238 66.0583C216.063 66.8147 207.727 73.8436 210.121 82.5258C212.516 91.2081 203.789 93.1494 198.057 99.7364C192.324 106.323 199.406 111.712 209.063 118.152C218.72 124.592 208.463 122.925 214.188 133.107C219.914 143.288 239.295 130.282 239.295 130.282L263 89.4074Z" fill="#503164"/>
<path d="M126.664 434.601L138.393 435V341.255C138.393 341.255 138.984 317.014 161.846 314.582C184.707 312.151 392.042 282.116 392.042 282.116C392.042 282.116 400.26 281.246 404.993 297.017C409.726 312.788 414.333 374.804 414.333 374.804L477.973 383.381C477.973 383.381 479.652 273.832 456.671 267.786C433.69 261.741 133.149 292.546 133.149 292.546C133.149 292.546 110.858 408.898 126.664 434.601Z" fill="#2BD0D0"/>
<path opacity="0.197289" d="M126.664 434.601L138.393 435V341.255C138.393 341.255 138.984 317.014 161.846 314.582C184.707 312.151 392.042 282.116 392.042 282.116C392.042 282.116 400.26 281.246 404.993 297.017C409.726 312.788 414.333 374.804 414.333 374.804L477.973 383.381C477.973 383.381 479.652 273.832 456.671 267.786C433.69 261.741 133.149 292.546 133.149 292.546C133.149 292.546 110.858 408.898 126.664 434.601Z" fill="url(#paint7_linear_0_539)"/>
<path d="M66 303.784C66 303.784 71.744 272.028 112.144 263.705L397.327 231.062C397.327 231.062 425.323 229.902 438.131 237.649C450.939 245.395 469.219 251.817 476.714 286.872C484.209 321.928 486 381.814 486 381.814L478.91 382.914C478.91 382.914 468.562 274.474 457.599 267.608C446.635 260.743 150.196 302.863 150.196 302.863C150.196 302.863 129.635 306.951 127.844 337.395C126.053 367.838 127.844 434 127.844 434L66 409.057V303.784Z" fill="#2BD0D0"/>
<path opacity="0.19" d="M359.425 243.844C344.663 241.944 329.781 240.568 314.906 241.125C303.727 241.557 292.62 243.09 281.534 244.617L183.759 258.12C182.1 258.349 180.209 258.723 179.38 260.164C177.787 262.916 181.529 265.628 184.561 266.676C217.071 277.932 251.804 289.332 285.269 281.306C300.569 277.637 314.78 270.018 330.299 267.371C345.817 264.724 361.747 267.161 377.232 264.665C391.789 262.32 405.649 255.656 420.404 255.591C424.929 255.591 429.587 256.168 433.879 254.752C438.172 253.337 441.967 249.013 440.779 244.702C426.926 244.224 411.375 241.695 397.787 244.44C384.338 247.152 372.893 243.844 359.425 243.844Z" fill="url(#paint8_linear_0_539)"/>
<path d="M271 259.38L271.57 261.494C271.57 261.494 288.451 271.667 288.345 271.995C288.239 272.323 358.369 255.756 358.369 255.756L360 251L271 259.38Z" fill="#2BD0D0"/>
<path d="M271 259.38L271.57 261.494C271.57 261.494 288.451 271.667 288.345 271.995C288.239 272.323 358.369 255.756 358.369 255.756L360 251L271 259.38Z" fill="url(#paint9_linear_0_539)"/>
<path d="M272 259.364L334.107 246L360 251.054L289.442 268L272 259.364Z" fill="#2BD0D0"/>
<path d="M272 259.364L334.107 246L360 251.054L289.442 268L272 259.364Z" fill="url(#paint10_linear_0_539)"/>
<path d="M251.832 270.484L266.289 270.996C266.289 270.996 269.961 271.224 270.91 268.279C271.859 265.334 265.02 259.119 264.287 259.002C263.554 258.884 244.528 264.221 247.27 269.558L251.832 270.484Z" fill="#2BD0D0"/>
<path d="M251.832 270.484L266.289 270.996C266.289 270.996 269.961 271.224 270.91 268.279C271.859 265.334 265.02 259.119 264.287 259.002C263.554 258.884 244.528 264.221 247.27 269.558L251.832 270.484Z" fill="url(#paint11_linear_0_539)"/>
<path d="M83 416.056L75.9416 437.733C55.4688 445.084 38.0624 437.733 38.0624 437.733L33 415C33 415 58.5351 423.56 83 416.056Z" fill="#2BD0D0"/>
<path d="M83 416.056L75.9416 437.733C55.4688 445.084 38.0624 437.733 38.0624 437.733L33 415C33 415 58.5351 423.56 83 416.056Z" fill="url(#paint12_linear_0_539)"/>
<path d="M91 396L88.7159 412.943L82.9296 415.951C58.2815 423.372 32.5146 414.913 32.5146 414.913L28.0722 411.63L26 396H91Z" fill="#2BD0D0"/>
<path d="M91 396L88.7159 412.943L82.9296 415.951C58.2815 423.372 32.5146 414.913 32.5146 414.913L28.0722 411.63L26 396H91Z" fill="url(#paint13_linear_0_539)"/>
<ellipse cx="58.5" cy="395" rx="32.5" ry="6" fill="#2BD0D0"/>
<ellipse cx="58.5" cy="395" rx="32.5" ry="6" fill="url(#paint14_linear_0_539)"/>
<path d="M43.6413 265.03C40.4587 263.515 37.0383 262.372 34.2849 260.159C28.7383 255.661 27.3319 247.912 25.5953 240.962C23.8587 234.011 20.4978 226.369 13.6505 224.375C11.0885 223.638 8.08418 223.93 6.1363 225.764C4.08277 227.698 3.66678 230.874 4.22803 233.679C4.78929 236.483 6.15611 238.995 7.21259 241.653C9.67965 247.826 10.4306 254.559 9.38497 261.13C8.51998 266.519 6.45324 271.981 7.78045 277.264C10.0321 286.228 21.2506 291.485 21.5609 300.721C21.7722 306.954 16.6747 312.722 17.8302 318.856C18.682 323.394 22.8353 326.936 23.0598 331.548C23.3107 336.778 18.3981 341.203 18.6358 346.433C18.8735 351.663 24.0634 355.158 27.4508 359.272C30.2905 362.726 31.979 366.992 32.2776 371.465C32.4558 374.256 32.0993 377.147 33.0039 379.792C33.6642 381.725 34.9848 383.367 36.0082 385.108C37.1374 386.988 37.9891 389.022 39.3494 390.763C42.8482 395.201 48.6824 397.044 54.074 395.414C55.1239 388.464 54.2061 381.373 54.4966 374.349C55.0711 360.74 60.1884 347.025 56.9133 333.814C55.7116 328.97 53.4005 324.371 52.9911 319.401C52.628 314.962 53.8033 310.563 54.6221 306.184C56.3124 297.14 56.286 287.79 55.5927 278.646C55.0447 271.39 49.9736 268.047 43.6413 265.03Z" fill="#2BD0D0"/>
<path d="M63.7518 300.767C63.6986 306.829 65.0819 313.096 63.14 318.852C61.6703 323.214 58.4382 326.786 56.769 331.075C52.9184 340.974 58.099 352.075 57.0416 362.644C56.6027 366.999 55.1064 371.182 54.162 375.458C52.9892 380.871 52.7017 386.438 53.3108 391.943C53.1819 394.015 54.5994 395.865 56.636 396.285C59.8944 397.526 63.2699 398.435 66.7112 399C65.5478 392.591 66.7731 385.979 70.1561 380.41C75.4298 371.78 85.6779 365.964 87.5866 356.051C88.8767 349.339 85.8708 342.527 86.0836 335.696C86.2368 331.15 87.8034 326.765 90.5659 323.148C93.0465 319.921 96.4049 317.425 98.7126 314.079C104.259 306.012 102.53 295.23 100.881 285.584C99.2313 275.937 98.2736 264.836 104.791 257.527C106.853 255.216 109.539 253.483 111.408 251.014C115.571 245.51 114.52 237.031 109.679 232.112C104.838 227.192 97.0433 225.831 90.4595 227.996C87.6823 228.813 85.2311 230.477 83.4501 232.756C80.1249 237.47 81.455 243.91 82.8648 249.513C84.0951 254.38 85.086 259.996 83.4035 264.903C82.1466 268.554 78.9611 270.533 76.2544 273.075C68.5031 280.235 63.9917 290.227 63.7518 300.767Z" fill="#2BD0D0"/>
<path d="M57.0622 354.522C56.1243 361.115 54.7703 367.761 54.4929 374.373V375.038C54.478 375.202 54.4402 375.363 54.3806 375.517C53.209 380.934 52.9168 386.507 53.5153 392.018C53.5508 392.911 53.776 393.786 54.1758 394.584C54.1428 394.863 54.1031 395.135 54.0635 395.414C48.6702 397.044 42.8341 395.201 39.3342 390.762C38.0131 389.021 37.1215 386.987 35.992 385.107C34.9352 383.359 33.6472 381.717 32.9867 379.79C32.0818 377.132 32.4384 374.254 32.2601 371.463C31.9615 366.989 30.2724 362.722 27.4318 359.267C24.0434 355.18 18.8452 351.751 18.614 346.434C18.3828 341.117 23.2904 336.778 23.0394 331.547C22.8148 326.935 18.6602 323.393 17.8082 318.854C16.6523 312.719 21.7712 306.951 21.5401 300.717C21.2296 291.479 10.0076 286.222 7.75523 277.257C6.43421 271.973 8.495 266.51 9.36026 261.121C10.4109 254.558 9.66893 247.832 7.21361 241.661C6.15679 239.003 4.78954 236.498 4.22811 233.686C3.66667 230.875 4.0828 227.705 6.13698 225.764C8.11851 223.93 11.0908 223.638 13.6536 224.375C20.5097 226.369 23.8584 234.039 25.6022 240.99C27.3459 247.942 28.7462 255.684 34.2945 260.19C37.0356 262.417 40.4702 263.546 43.6539 265.062C49.9948 268.079 55.0675 271.422 55.6091 278.613C56.2696 287.757 56.3291 297.108 54.6382 306.153C53.8191 310.533 52.6566 314.932 53.0067 319.372C53.3568 323.811 55.2789 328.012 56.5338 332.318C56.6725 332.803 56.8112 333.295 56.9301 333.787C58.5946 340.626 58.0596 347.544 57.0622 354.522Z" fill="#30C59B"/>
<path d="M53.7185 394C53.421 393.229 53.2496 392.38 53.2157 391.512C52.7851 386.152 53.0001 380.733 53.8525 375.465C53.8765 375.31 53.9052 375.155 53.9339 375C53.7616 381.346 54.3074 387.744 53.7185 394Z" fill="url(#paint15_linear_0_539)"/>
<path d="M111.393 251.014C109.522 253.483 106.831 255.216 104.766 257.527C98.2387 264.83 99.1978 275.937 100.85 285.584C102.501 295.23 104.233 306.012 98.6783 314.079C96.3671 317.398 93.0035 319.921 90.5191 323.148C87.7523 326.765 86.1834 331.15 86.0299 335.696C85.8168 342.527 88.8274 349.339 87.5352 356.051C85.6236 365.964 75.3598 371.793 70.078 380.41C66.7025 385.984 65.4851 392.595 66.6545 399C63.2166 398.435 59.8447 397.526 56.5904 396.285C55.7003 396.021 54.893 395.534 54.2459 394.87C54.1541 394.763 54.0717 394.647 53.9995 394.525C53.5866 393.735 53.3482 392.866 53.3001 391.976C52.701 386.469 53.0002 380.902 54.186 375.491C54.2193 375.331 54.2592 375.172 54.2992 375.013C55.245 370.903 56.6437 366.873 57.07 362.677C57.2966 359.957 57.243 357.221 56.9101 354.511C57.9159 347.54 58.4554 340.629 56.7569 333.843C56.637 333.352 56.4972 332.861 56.3573 332.376C56.4839 331.951 56.6304 331.526 56.7969 331.108C58.4687 326.819 61.7057 323.247 63.1777 318.885C65.1159 313.129 63.7372 306.862 63.7904 300.8C63.877 290.331 68.6127 280.219 76.219 273.075C78.9298 270.533 82.1202 268.554 83.3791 264.903C85.0642 259.996 84.0451 254.38 82.8395 249.513C81.4209 243.91 80.0754 237.47 83.4257 232.756C85.0908 230.419 87.715 228.899 90.4459 227.996C97.0131 225.831 104.853 227.192 109.695 232.112C114.537 237.031 115.563 245.543 111.393 251.014Z" fill="#30C59B"/>
<path d="M229.573 146.146C229.573 146.146 201.756 150.446 188.889 181.123C176.022 211.8 182.713 249.806 182.938 253.15C183.163 256.494 222.366 271 233.573 271C244.781 271 247.115 259.771 247.115 259.771L227.312 251.338L287.482 244.389H298.286L292.335 254.421C292.335 254.421 304.078 255.652 311.927 255.932C319.775 256.213 325.105 240.691 325.984 232.973C326.863 225.256 291.317 157.515 286.007 153.503C280.698 149.49 266.29 139.686 229.573 146.146Z" fill="#2BD0D0"/>
<path d="M262.392 88.7763C262.392 88.7763 267.424 91.6061 266.971 100.761C266.519 109.916 263.682 123.693 260.819 127.261C257.955 130.83 247.94 132.229 247.94 132.229C247.94 132.229 253.403 145.206 257.469 148.555C261.535 151.904 253.383 164.242 245.454 160.194C237.526 156.145 228.334 145.978 228.334 145.978C228.334 145.978 234.946 133.733 232.71 127.288C230.475 120.843 221.938 98.2245 228.334 92.0455C234.73 85.8666 248.52 77.011 262.392 88.7763Z" fill="url(#paint16_linear_0_539)"/>
<path opacity="0.25" d="M218.334 190L214 244.055L227.238 251L238 249.122L224.572 232.618L218.334 190Z" fill="white"/>
<path opacity="0.25" d="M288 187C288 187 305.909 229.077 297.97 244L291.854 242.839L288 187Z" fill="white"/>
<path d="M239.522 258.045C239.522 258.045 232.756 263.82 235.776 268.312C238.796 272.803 242.401 272.675 245.407 270.667C248.413 268.658 254.318 263.891 261.353 266.079C268.388 268.267 270.097 269.659 270.097 269.659C270.097 269.659 273.802 267.343 272.841 265.02C271.879 262.697 264.521 255.171 262.389 254.195C260.257 253.22 251.406 256.216 251.406 256.216C251.406 256.216 244.903 254.458 239.522 258.045Z" fill="url(#paint17_linear_0_539)"/>
<path d="M299.191 245.598C299.191 245.598 292.806 246.357 291.193 250.555C289.58 254.753 289 255.264 289 255.264C289 255.264 292.606 255.955 294.106 254.001C295.605 252.047 297.165 252.868 297.165 252.868L296.718 255.375C296.718 255.375 306.516 256.852 310.942 255.264C315.367 253.676 317.267 251.812 317.267 251.812L319 247.572C319 247.572 314.821 244.541 311.668 244.072C308.516 243.602 299.191 245.598 299.191 245.598Z" fill="url(#paint18_linear_0_539)"/>
<path d="M332.893 290C332.893 290 354.827 306.687 352.877 329.259C350.928 351.831 348.064 385.346 348.064 385.346C348.064 385.346 339.218 389.068 333.357 385.346C327.495 381.624 323.946 330.697 321.042 325.833C318.138 320.969 300.667 299.042 282 297.154L332.893 290Z" fill="#25233A"/>
<path d="M223 306.058C223 306.058 233.444 315.953 252.062 319.06C270.681 322.167 279.359 324.76 285.049 340.665C290.739 356.57 296.197 390.802 297.984 394.628C299.77 398.454 307.366 396.502 307.366 396.502C307.366 396.502 311.662 391.607 311.662 364.388C311.662 326.442 314.317 318.664 304.749 309.132C295.181 299.599 286.477 297 286.477 297L223 306.058Z" fill="#3F3D56"/>
<path d="M298 396L299.82 410.197H303.228C303.228 410.197 325.176 411.384 325.864 410.872C326.552 410.359 324.807 399.629 316.492 399.932C308.176 400.236 307.631 397.909 307.631 397.909L298 396Z" fill="#25233A"/>
<path d="M335 386.156L338.518 400L376.955 394.788C376.955 394.788 378.308 385.695 366.132 386.597C362.918 386.831 360.524 389.062 356.661 389.082C352.798 389.102 349.098 387.539 347.15 385L335 386.156Z" fill="#25233A"/>
<path d="M465.804 212.337L323.561 219.991C320.121 220.172 317.185 217.52 317 214.065C317 213.958 317 213.845 317 213.739V112.473C317.003 108.372 320.267 105.025 324.348 104.938L466.009 102.001C467.827 101.964 469.584 102.654 470.895 103.918C472.206 105.183 472.964 106.92 473 108.745V204.716C472.995 208.772 469.836 212.118 465.804 212.337Z" fill="#2BD0D0"/>
<path d="M473.804 212.337L331.555 219.992C328.115 220.169 325.182 217.514 325 214.058C325 213.952 325 213.846 325 213.739V112.473C324.996 108.371 328.26 105.021 332.342 104.938L474.022 102.001C477.799 101.931 480.92 104.944 481 108.739V204.716C480.995 208.773 477.836 212.119 473.804 212.337Z" fill="#2BD0D0"/>
<path d="M473.804 212.337L331.555 219.992C328.115 220.169 325.182 217.514 325 214.058C325 213.952 325 213.846 325 213.739V112.473C324.996 108.371 328.26 105.021 332.342 104.938L474.022 102.001C477.799 101.931 480.92 104.944 481 108.739V204.716C480.995 208.773 477.836 212.119 473.804 212.337Z" fill="url(#paint19_linear_0_539)"/>
<path d="M431.773 251.138L395.478 255C395.478 255 384.425 252.77 385.023 251.138C385.622 249.505 397.179 247.933 397.179 247.933V182.129C397.08 181.983 395.558 180.045 391.39 178.81C390.583 178.571 389.762 178.38 388.931 178.24C388.217 178.135 387.523 177.925 386.871 177.616C384.392 176.335 387.13 174.105 390.978 174.006C391.581 173.985 392.184 174.02 392.78 174.112H420.693C420.693 174.112 431.261 177.085 431.773 191.923C432.284 206.762 431.773 251.138 431.773 251.138Z" fill="#3A3054"/>
<path d="M402 251.277L395.322 255C395.322 255 384.434 252.77 385.023 251.137C385.612 249.505 397.018 247.932 397.018 247.932V182.123C396.88 181.971 395.211 180.225 391.315 178.805C389.865 178.288 388.376 177.888 386.863 177.61C384.421 176.329 387.118 174.1 390.909 174C394.137 174.445 400.494 178.028 400.907 180.073C401.319 182.117 402 251.277 402 251.277Z" fill="#51466B"/>
<path d="M267 389C266.119 390.001 265.709 390.371 266.23 389.547C266.5 389.388 266.757 389.205 267 389Z" fill="url(#paint20_linear_0_539)"/>
</g>
<defs>
<filter id="filter0_d_0_539" x="0" y="0" width="741" height="490" filterUnits="userSpaceOnUse" color-interpolation-filters="sRGB">
<feFlood flood-opacity="0" result="BackgroundImageFix"/>
<feColorMatrix in="SourceAlpha" type="matrix" values="0 0 0 0 0 0 0 0 0 0 0 0 0 0 0 0 0 0 127 0" result="hardAlpha"/>
<feOffset dy="4"/>
<feGaussianBlur stdDeviation="2"/>
<feComposite in2="hardAlpha" operator="out"/>
<feColorMatrix type="matrix" values="0 0 0 0 0 0 0 0 0 0 0 0 0 0 0 0 0 0 0.25 0"/>
<feBlend mode="normal" in2="BackgroundImageFix" result="effect1_dropShadow_0_539"/>
<feBlend mode="normal" in="SourceGraphic" in2="effect1_dropShadow_0_539" result="shape"/>
</filter>
<linearGradient id="paint0_linear_0_539" x1="207" y1="390" x2="218" y2="390" gradientUnits="userSpaceOnUse">
<stop stop-color="#183866"/>
<stop offset="1" stop-color="#1A7FC1"/>
</linearGradient>
<linearGradient id="paint1_linear_0_539" x1="233.992" y1="387.001" x2="240" y2="387.001" gradientUnits="userSpaceOnUse">
<stop/>
<stop offset="0.99" stop-opacity="0.01"/>
</linearGradient>
<linearGradient id="paint2_linear_0_539" x1="267.916" y1="107.831" x2="280.23" y2="130.866" gradientUnits="userSpaceOnUse">
<stop/>
<stop offset="0.99" stop-opacity="0.01"/>
</linearGradient>
<linearGradient id="paint3_linear_0_539" x1="293.529" y1="-96.5601" x2="248.041" y2="-96.669" gradientUnits="userSpaceOnUse">
<stop/>
<stop offset="0.99" stop-opacity="0.01"/>
</linearGradient>
<linearGradient id="paint4_linear_0_539" x1="361.142" y1="99.9992" x2="350.535" y2="50.8935" gradientUnits="userSpaceOnUse">
<stop/>
<stop offset="0.99" stop-opacity="0.01"/>
</linearGradient>
<linearGradient id="paint5_linear_0_539" x1="313.847" y1="54.3179" x2="309.879" y2="53.0651" gradientUnits="userSpaceOnUse">
<stop/>
<stop offset="0.99" stop-opacity="0.01"/>
</linearGradient>
<linearGradient id="paint6_linear_0_539" x1="262.106" y1="99.5083" x2="245.633" y2="118.4" gradientUnits="userSpaceOnUse">
<stop/>
<stop offset="0.99" stop-opacity="0.01"/>
</linearGradient>
<linearGradient id="paint7_linear_0_539" x1="528.505" y1="22.5488" x2="37.0621" y2="-84.2798" gradientUnits="userSpaceOnUse">
<stop/>
<stop offset="1" stop-opacity="0.01"/>
</linearGradient>
<linearGradient id="paint8_linear_0_539" x1="216.123" y1="244.726" x2="478.119" y2="244.726" gradientUnits="userSpaceOnUse">
<stop stop-color="#183866"/>
<stop offset="1" stop-color="#1A7FC1"/>
</linearGradient>
<linearGradient id="paint9_linear_0_539" x1="79.4557" y1="225.212" x2="80.9992" y2="332.94" gradientUnits="userSpaceOnUse">
<stop/>
<stop offset="0.99" stop-opacity="0.01"/>
</linearGradient>
<linearGradient id="paint10_linear_0_539" x1="201.154" y1="250.814" x2="210.217" y2="297.211" gradientUnits="userSpaceOnUse">
<stop/>
<stop offset="0.99" stop-opacity="0.01"/>
</linearGradient>
<linearGradient id="paint11_linear_0_539" x1="241.493" y1="260.691" x2="240.892" y2="279.145" gradientUnits="userSpaceOnUse">
<stop/>
<stop offset="0.99" stop-opacity="0.01"/>
</linearGradient>
<linearGradient id="paint12_linear_0_539" x1="130.11" y1="47.9536" x2="86.3712" y2="41.7094" gradientUnits="userSpaceOnUse">
<stop/>
<stop offset="0.99" stop-opacity="0.01"/>
</linearGradient>
<linearGradient id="paint13_linear_0_539" x1="137.367" y1="77.1729" x2="102.535" y2="67.6642" gradientUnits="userSpaceOnUse">
<stop/>
<stop offset="0.99" stop-opacity="0.01"/>
</linearGradient>
<linearGradient id="paint14_linear_0_539" x1="-188.124" y1="370.797" x2="-188.764" y2="463.661" gradientUnits="userSpaceOnUse">
<stop/>
<stop offset="0.99" stop-opacity="0.01"/>
</linearGradient>
<linearGradient id="paint15_linear_0_539" x1="82.2068" y1="64.7284" x2="78.684" y2="64.7885" gradientUnits="userSpaceOnUse">
<stop/>
<stop offset="0.99" stop-opacity="0.01"/>
</linearGradient>
<linearGradient id="paint16_linear_0_539" x1="225.984" y1="161.009" x2="266.998" y2="161.009" gradientUnits="userSpaceOnUse">
<stop stop-color="#ECC4D7"/>
<stop offset="0.42" stop-color="#EFD4D1"/>
<stop offset="1" stop-color="#F2EAC9"/>
</linearGradient>
<linearGradient id="paint17_linear_0_539" x1="272.632" y1="233.608" x2="310.631" y2="233.608" gradientUnits="userSpaceOnUse">
<stop stop-color="#ECC4D7"/>
<stop offset="0.42" stop-color="#EFD4D1"/>
<stop offset="1" stop-color="#F2EAC9"/>
</linearGradient>
<linearGradient id="paint18_linear_0_539" x1="326.292" y1="239.852" x2="356.292" y2="239.852" gradientUnits="userSpaceOnUse">
<stop stop-color="#ECC4D7"/>
<stop offset="0.42" stop-color="#EFD4D1"/>
<stop offset="1" stop-color="#F2EAC9"/>
</linearGradient>
<linearGradient id="paint19_linear_0_539" x1="454.177" y1="203.011" x2="330.849" y2="346.362" gradientUnits="userSpaceOnUse">
<stop stop-color="#362958" stop-opacity="0.500601"/>
<stop offset="1" stop-color="#34313D" stop-opacity="0.01"/>
</linearGradient>
<linearGradient id="paint20_linear_0_539" x1="306.125" y1="46.1652" x2="304.959" y2="45.7339" gradientUnits="userSpaceOnUse">
<stop/>
<stop offset="0.99" stop-opacity="0.01"/>
</linearGradient>
</defs>
</svg>
